<svg width="350" height="372" viewBox="0 0 350 372" fill="none" xmlns="http://www.w3.org/2000/svg">
<circle cx="175" cy="197" r="175" fill="#2E333C"/>
<circle cx="175" cy="197" r="160" fill="#FFE500"/>
<circle cx="175" cy="197" r="150" fill="#23282F"/>
<rect x="31" y="85.5269" width="46" height="10" transform="rotate(-45 31 85.5269)" fill="#A1A1A1"/>
<rect x="287" y="53" width="46" height="10" transform="rotate(45 287 53)" fill="#A1A1A1"/>
<rect x="152" y="15" width="46" height="10" fill="#A2A2A2"/>
    <!-- Reset -->
<rect x="142" width="66" height="16" fill="#D9D9D9"/>
    <!-- Start -->
<rect x="289" y="36" width="66" height="16" transform="rotate(45 289 36)" fill="#D9D9D9"/>
    <!-- Stop -->
<rect x="14" y="82.669" width="66" height="16" transform="rotate(-45 14 82.669)" fill="#D9D9D9"/>
<path d="M67.2584 125.652L65.4906 123.884C66.0798 123.833 66.6304 123.687 67.1423 123.448C67.6506 123.205 68.0962 122.892 68.4792 122.509C68.7039 122.284 68.8788 122.069 69.004 121.863C69.1329 121.653 69.2176 121.457 69.2581 121.277C69.2987 121.089 69.2987 120.92 69.2581 120.769C69.214 120.614 69.1348 120.48 69.0206 120.366C68.8659 120.211 68.6836 120.117 68.4737 120.084C68.2638 120.051 68.0299 120.06 67.7721 120.111C67.518 120.159 67.2381 120.24 66.9324 120.354C66.6268 120.469 66.3027 120.598 65.9602 120.741C65.0836 121.102 64.3066 121.249 63.6289 121.183C62.955 121.113 62.3546 120.815 61.828 120.288C61.4155 119.876 61.1448 119.439 61.0159 118.979C60.8833 118.515 60.8631 118.045 60.9552 117.57C61.0509 117.091 61.2424 116.62 61.5297 116.156C61.8133 115.688 62.165 115.245 62.5848 114.825C62.9973 114.412 63.3877 114.073 63.756 113.808C64.1243 113.536 64.4944 113.317 64.8663 113.151L66.5181 114.803C66.2935 114.843 66.067 114.908 65.8386 114.996C65.614 115.081 65.3967 115.184 65.1868 115.305C64.9732 115.423 64.7724 115.554 64.5846 115.698C64.4005 115.837 64.2347 115.981 64.0874 116.128C63.8849 116.331 63.721 116.535 63.5958 116.742C63.4669 116.944 63.3803 117.138 63.3361 117.322C63.2919 117.506 63.2882 117.679 63.3251 117.841C63.3582 117.999 63.4356 118.139 63.5571 118.261C63.6897 118.393 63.8444 118.478 64.0211 118.515C64.1942 118.548 64.3931 118.548 64.6178 118.515C64.8387 118.478 65.0873 118.414 65.3635 118.322C65.6361 118.226 65.9362 118.11 66.264 117.974C66.7133 117.789 67.1387 117.648 67.5401 117.548C67.9415 117.441 68.3264 117.392 68.6947 117.399C69.063 117.406 69.4165 117.484 69.7553 117.631C70.0905 117.775 70.4182 118.007 70.7386 118.327C71.1806 118.769 71.4679 119.226 71.6004 119.697C71.733 120.161 71.7496 120.631 71.6502 121.106C71.547 121.577 71.3445 122.045 71.0425 122.509C70.7442 122.969 70.3833 123.411 69.9597 123.835C69.5252 124.269 69.074 124.647 68.6063 124.967C68.1422 125.284 67.6929 125.512 67.2584 125.652ZM73.3627 107.218L71.1033 109.477L77.5722 115.946L75.7823 117.736L69.3134 111.267L67.065 113.515L65.6121 112.063L71.9098 105.765L73.3627 107.218ZM87.0684 106.45L85.1239 108.394L82.7981 107.196L79.9808 110.013L81.185 112.333L79.2516 114.267L74.2134 103.461L76.3292 101.345L87.0684 106.45ZM81.0193 106.234L77.5059 104.422C77.2444 104.286 76.9627 104.093 76.6607 103.842L76.6165 103.887C76.8301 104.137 77.0142 104.413 77.1689 104.715L78.9919 108.262L81.0193 106.234ZM94.7029 98.8153L92.6534 100.865L89.3831 100.058C89.1363 99.9957 88.9098 99.946 88.7036 99.9092C88.4973 99.8723 88.3077 99.8558 88.1346 99.8594C87.9615 99.8558 87.805 99.8797 87.665 99.9313C87.5251 99.9754 87.3999 100.053 87.2894 100.163L86.8088 100.644L89.8416 103.677L88.0572 105.461L80.1354 97.5392L82.9639 94.7108C84.8863 92.7884 86.5657 92.5453 88.002 93.9816C88.2782 94.2578 88.4918 94.5561 88.6428 94.8765C88.7901 95.1933 88.8804 95.5229 88.9135 95.8654C88.9466 96.2079 88.9209 96.5578 88.8362 96.915C88.7551 97.2686 88.6189 97.6184 88.4274 97.9646L88.4495 97.9867C88.6041 97.9057 88.7791 97.8523 88.9743 97.8265C89.1658 97.797 89.3683 97.786 89.5819 97.7934C89.7955 97.8007 90.0128 97.8228 90.2338 97.8596C90.4548 97.8891 90.6647 97.9259 90.8636 97.9701L94.7029 98.8153ZM83.2566 97.0918L85.4608 99.296L86.2342 98.5226C86.6172 98.1395 86.8143 97.7215 86.8253 97.2686C86.8364 96.8082 86.6762 96.4123 86.3447 96.0808C85.6523 95.3885 84.8918 95.4566 84.0632 96.2852L83.2566 97.0918ZM94.3107 86.2697L92.0513 88.5292L98.5202 94.9981L96.7303 96.7879L90.2614 90.319L88.013 92.5674L86.5602 91.1145L92.8578 84.8168L94.3107 86.2697Z" fill="#FFE500"/>
<path d="M163.68 73H160.781L159.039 70.1172C158.909 69.8984 158.784 69.7031 158.664 69.5312C158.544 69.3594 158.422 69.2135 158.297 69.0938C158.177 68.9688 158.049 68.875 157.914 68.8125C157.784 68.7448 157.641 68.7109 157.484 68.7109H156.805V73H154.281V61.7969H158.281C161 61.7969 162.359 62.8125 162.359 64.8438C162.359 65.2344 162.299 65.5964 162.18 65.9297C162.06 66.2578 161.891 66.5547 161.672 66.8203C161.453 67.0859 161.188 67.3151 160.875 67.5078C160.568 67.7005 160.224 67.8516 159.844 67.9609V67.9922C160.01 68.0443 160.172 68.1302 160.328 68.25C160.484 68.3646 160.635 68.5 160.781 68.6562C160.927 68.8125 161.065 68.9818 161.195 69.1641C161.331 69.3411 161.453 69.5156 161.562 69.6875L163.68 73ZM156.805 63.6875V66.8047H157.898C158.44 66.8047 158.875 66.6484 159.203 66.3359C159.536 66.0182 159.703 65.625 159.703 65.1562C159.703 64.1771 159.117 63.6875 157.945 63.6875H156.805ZM171.453 73H164.734V61.7969H171.195V63.8516H167.258V66.3438H170.922V68.3906H167.258V70.9531H171.453V73ZM172.734 72.5703V70.0703C173.188 70.4505 173.68 70.737 174.211 70.9297C174.742 71.1172 175.279 71.2109 175.82 71.2109C176.138 71.2109 176.414 71.1823 176.648 71.125C176.888 71.0677 177.086 70.9896 177.242 70.8906C177.404 70.7865 177.523 70.6667 177.602 70.5312C177.68 70.3906 177.719 70.2396 177.719 70.0781C177.719 69.8594 177.656 69.6641 177.531 69.4922C177.406 69.3203 177.234 69.1615 177.016 69.0156C176.802 68.8698 176.547 68.7292 176.25 68.5938C175.953 68.4583 175.633 68.3203 175.289 68.1797C174.414 67.8151 173.76 67.3698 173.328 66.8438C172.901 66.3177 172.688 65.6823 172.688 64.9375C172.688 64.3542 172.805 63.8542 173.039 63.4375C173.273 63.0156 173.591 62.6693 173.992 62.3984C174.398 62.1276 174.867 61.9297 175.398 61.8047C175.93 61.6745 176.492 61.6094 177.086 61.6094C177.669 61.6094 178.185 61.6458 178.633 61.7188C179.086 61.7865 179.503 61.8932 179.883 62.0391V64.375C179.695 64.2448 179.49 64.1302 179.266 64.0312C179.047 63.9323 178.82 63.8516 178.586 63.7891C178.352 63.7214 178.117 63.6719 177.883 63.6406C177.654 63.6094 177.435 63.5938 177.227 63.5938C176.94 63.5938 176.68 63.6224 176.445 63.6797C176.211 63.7318 176.013 63.8073 175.852 63.9062C175.69 64.0052 175.565 64.125 175.477 64.2656C175.388 64.401 175.344 64.5547 175.344 64.7266C175.344 64.9141 175.393 65.0833 175.492 65.2344C175.591 65.3802 175.732 65.5208 175.914 65.6562C176.096 65.7865 176.318 65.9167 176.578 66.0469C176.839 66.1719 177.133 66.3021 177.461 66.4375C177.909 66.625 178.31 66.8255 178.664 67.0391C179.023 67.2474 179.331 67.4844 179.586 67.75C179.841 68.0156 180.036 68.3203 180.172 68.6641C180.307 69.0026 180.375 69.3984 180.375 69.8516C180.375 70.4766 180.255 71.0026 180.016 71.4297C179.781 71.8516 179.461 72.1953 179.055 72.4609C178.648 72.7214 178.174 72.9089 177.633 73.0234C177.096 73.138 176.529 73.1953 175.93 73.1953C175.315 73.1953 174.729 73.1432 174.172 73.0391C173.62 72.9349 173.141 72.7786 172.734 72.5703ZM188.938 73H182.219V61.7969H188.68V63.8516H184.742V66.3438H188.406V68.3906H184.742V70.9531H188.938V73ZM198.742 63.8516H195.547V73H193.016V63.8516H189.836V61.7969H198.742V63.8516Z" fill="#FFE500"/>
<path d="M251.824 92.2584L253.592 90.4906C253.644 91.0798 253.789 91.6304 254.029 92.1423C254.272 92.6506 254.585 93.0962 254.968 93.4792C255.192 93.7039 255.408 93.8788 255.614 94.004C255.824 94.1329 256.019 94.2176 256.2 94.2581C256.387 94.2987 256.557 94.2987 256.708 94.2581C256.863 94.214 256.997 94.1348 257.111 94.0206C257.266 93.8659 257.36 93.6836 257.393 93.4737C257.426 93.2638 257.417 93.0299 257.365 92.7721C257.317 92.518 257.236 92.2381 257.122 91.9324C257.008 91.6268 256.879 91.3027 256.735 90.9602C256.375 90.0836 256.227 89.3066 256.294 88.6289C256.364 87.955 256.662 87.3546 257.188 86.828C257.601 86.4155 258.037 86.1448 258.498 86.0159C258.962 85.8833 259.431 85.8631 259.906 85.9552C260.385 86.0509 260.857 86.2424 261.321 86.5297C261.788 86.8133 262.232 87.165 262.652 87.5848C263.064 87.9973 263.403 88.3877 263.668 88.756C263.941 89.1243 264.16 89.4944 264.326 89.8663L262.674 91.5181C262.634 91.2935 262.569 91.067 262.481 90.8386C262.396 90.614 262.293 90.3967 262.171 90.1868C262.054 89.9732 261.923 89.7724 261.779 89.5846C261.639 89.4005 261.496 89.2347 261.348 89.0874C261.146 88.8849 260.941 88.721 260.735 88.5958C260.532 88.4669 260.339 88.3803 260.155 88.3361C259.971 88.2919 259.798 88.2882 259.636 88.3251C259.477 88.3582 259.337 88.4356 259.216 88.5571C259.083 88.6897 258.999 88.8444 258.962 89.0211C258.929 89.1942 258.929 89.3931 258.962 89.6178C258.999 89.8387 259.063 90.0873 259.155 90.3635C259.251 90.6361 259.367 90.9362 259.503 91.264C259.687 91.7133 259.829 92.1387 259.929 92.5401C260.035 92.9415 260.085 93.3264 260.078 93.6947C260.07 94.063 259.993 94.4165 259.846 94.7553C259.702 95.0905 259.47 95.4182 259.15 95.7386C258.708 96.1806 258.251 96.4679 257.78 96.6004C257.316 96.733 256.846 96.7496 256.371 96.6502C255.899 96.547 255.432 96.3445 254.968 96.0425C254.507 95.7442 254.065 95.3833 253.642 94.9597C253.207 94.5252 252.83 94.074 252.509 93.6063C252.193 93.1422 251.964 92.6929 251.824 92.2584ZM270.259 98.3627L267.999 96.1033L261.531 102.572L259.741 100.782L266.21 94.3134L263.961 92.065L265.414 90.6121L271.712 96.9098L270.259 98.3627ZM267.646 108.964C266.512 107.829 265.955 106.537 265.978 105.086C266.003 103.631 266.609 102.311 267.795 101.125C269.047 99.8726 270.423 99.2226 271.922 99.1747C273.421 99.1269 274.769 99.7014 275.965 100.898C277.096 102.029 277.639 103.312 277.595 104.749C277.555 106.189 276.929 107.515 275.717 108.726C274.472 109.971 273.106 110.612 271.618 110.649C270.134 110.689 268.81 110.128 267.646 108.964ZM274.38 102.384C273.754 101.758 273.021 101.497 272.181 101.6C271.345 101.699 270.541 102.136 269.767 102.909C268.983 103.694 268.546 104.498 268.458 105.323C268.37 106.148 268.624 106.859 269.22 107.456C269.835 108.071 270.544 108.338 271.347 108.257C272.154 108.172 272.951 107.736 273.739 106.947C274.56 106.126 275.024 105.312 275.131 104.506C275.238 103.699 274.988 102.992 274.38 102.384ZM277.534 113.118L274.805 115.847L273.021 114.063L280.943 106.141L283.738 108.936C285.734 110.932 285.891 112.772 284.208 114.455C283.412 115.25 282.48 115.608 281.412 115.527C280.352 115.446 279.343 114.926 278.385 113.969L277.534 113.118ZM281.357 109.295L278.888 111.765L279.589 112.466C280.54 113.416 281.431 113.475 282.263 112.643C283.077 111.829 283.009 110.947 282.059 109.997L281.357 109.295Z" fill="#FFE500"/>
<path d="M125.605 295.434V293.5C125.827 293.695 126.09 293.871 126.396 294.027C126.709 294.184 127.035 294.317 127.373 294.428C127.718 294.532 128.063 294.613 128.408 294.672C128.753 294.73 129.072 294.76 129.365 294.76C130.374 294.76 131.126 294.574 131.621 294.203C132.122 293.826 132.373 293.285 132.373 292.582C132.373 292.204 132.288 291.876 132.119 291.596C131.956 291.316 131.729 291.062 131.436 290.834C131.143 290.6 130.794 290.378 130.391 290.17C129.993 289.955 129.564 289.73 129.102 289.496C128.613 289.249 128.158 288.998 127.734 288.744C127.311 288.49 126.943 288.21 126.631 287.904C126.318 287.598 126.071 287.253 125.889 286.869C125.713 286.479 125.625 286.023 125.625 285.502C125.625 284.864 125.765 284.311 126.045 283.842C126.325 283.367 126.693 282.976 127.148 282.67C127.604 282.364 128.122 282.136 128.701 281.986C129.287 281.837 129.883 281.762 130.488 281.762C131.868 281.762 132.874 281.928 133.506 282.26V284.105C132.679 283.533 131.618 283.246 130.322 283.246C129.964 283.246 129.606 283.285 129.248 283.363C128.89 283.435 128.571 283.555 128.291 283.725C128.011 283.894 127.783 284.112 127.607 284.379C127.432 284.646 127.344 284.971 127.344 285.355C127.344 285.714 127.409 286.023 127.539 286.283C127.676 286.544 127.874 286.781 128.135 286.996C128.395 287.211 128.711 287.419 129.082 287.621C129.46 287.823 129.893 288.044 130.381 288.285C130.882 288.533 131.357 288.793 131.807 289.066C132.256 289.34 132.65 289.643 132.988 289.975C133.327 290.307 133.594 290.674 133.789 291.078C133.991 291.482 134.092 291.944 134.092 292.465C134.092 293.155 133.955 293.741 133.682 294.223C133.415 294.698 133.05 295.085 132.588 295.385C132.132 295.684 131.605 295.899 131.006 296.029C130.407 296.166 129.775 296.234 129.111 296.234C128.89 296.234 128.617 296.215 128.291 296.176C127.965 296.143 127.633 296.091 127.295 296.02C126.956 295.954 126.634 295.873 126.328 295.775C126.029 295.671 125.788 295.557 125.605 295.434ZM140.664 295.902C140.286 296.111 139.788 296.215 139.17 296.215C137.419 296.215 136.543 295.238 136.543 293.285V287.367H134.824V286H136.543V283.559L138.145 283.041V286H140.664V287.367H138.145V293.002C138.145 293.673 138.258 294.151 138.486 294.438C138.714 294.724 139.092 294.867 139.619 294.867C140.023 294.867 140.371 294.757 140.664 294.535V295.902ZM146.982 296.234C145.505 296.234 144.323 295.769 143.438 294.838C142.559 293.9 142.119 292.66 142.119 291.117C142.119 289.438 142.578 288.126 143.496 287.182C144.414 286.238 145.654 285.766 147.217 285.766C148.708 285.766 149.87 286.225 150.703 287.143C151.543 288.061 151.963 289.333 151.963 290.961C151.963 292.556 151.51 293.835 150.605 294.799C149.707 295.756 148.499 296.234 146.982 296.234ZM147.1 287.113C146.071 287.113 145.257 287.465 144.658 288.168C144.059 288.865 143.76 289.828 143.76 291.059C143.76 292.243 144.062 293.178 144.668 293.861C145.273 294.545 146.084 294.887 147.1 294.887C148.135 294.887 148.929 294.551 149.482 293.881C150.042 293.21 150.322 292.257 150.322 291.02C150.322 289.77 150.042 288.806 149.482 288.129C148.929 287.452 148.135 287.113 147.1 287.113ZM156.162 294.555H156.123V300.6H154.521V286H156.123V287.758H156.162C156.95 286.43 158.102 285.766 159.619 285.766C160.908 285.766 161.914 286.215 162.637 287.113C163.359 288.005 163.721 289.203 163.721 290.707C163.721 292.38 163.314 293.721 162.5 294.73C161.686 295.733 160.573 296.234 159.16 296.234C157.865 296.234 156.865 295.674 156.162 294.555ZM156.123 290.521V291.918C156.123 292.745 156.39 293.448 156.924 294.027C157.464 294.6 158.148 294.887 158.975 294.887C159.945 294.887 160.703 294.516 161.25 293.773C161.803 293.031 162.08 291.999 162.08 290.678C162.08 289.564 161.823 288.692 161.309 288.061C160.794 287.429 160.098 287.113 159.219 287.113C158.288 287.113 157.539 287.439 156.973 288.09C156.406 288.734 156.123 289.545 156.123 290.521ZM188.584 281.996L184.629 296H182.705L179.824 285.766C179.701 285.329 179.626 284.854 179.6 284.34H179.561C179.521 284.822 179.437 285.29 179.307 285.746L176.406 296H174.502L170.4 281.996H172.207L175.186 292.738C175.309 293.188 175.387 293.656 175.42 294.145H175.469C175.501 293.799 175.602 293.331 175.771 292.738L178.867 281.996H180.439L183.408 292.816C183.512 293.188 183.59 293.624 183.643 294.125H183.682C183.708 293.786 183.796 293.337 183.945 292.777L186.807 281.996H188.584ZM196.836 296H195.234V294.438H195.195C194.499 295.635 193.473 296.234 192.119 296.234C191.123 296.234 190.342 295.971 189.775 295.443C189.215 294.916 188.936 294.216 188.936 293.344C188.936 291.475 190.036 290.388 192.236 290.082L195.234 289.662C195.234 287.963 194.548 287.113 193.174 287.113C191.969 287.113 190.882 287.523 189.912 288.344V286.703C190.895 286.078 192.028 285.766 193.311 285.766C195.661 285.766 196.836 287.009 196.836 289.496V296ZM195.234 290.941L192.822 291.273C192.08 291.378 191.52 291.563 191.143 291.83C190.765 292.09 190.576 292.556 190.576 293.227C190.576 293.715 190.749 294.115 191.094 294.428C191.445 294.734 191.911 294.887 192.49 294.887C193.285 294.887 193.939 294.61 194.453 294.057C194.974 293.497 195.234 292.79 195.234 291.938V290.941ZM204.492 295.902C204.115 296.111 203.617 296.215 202.998 296.215C201.247 296.215 200.371 295.238 200.371 293.285V287.367H198.652V286H200.371V283.559L201.973 283.041V286H204.492V287.367H201.973V293.002C201.973 293.673 202.087 294.151 202.314 294.438C202.542 294.724 202.92 294.867 203.447 294.867C203.851 294.867 204.199 294.757 204.492 294.535V295.902ZM213.447 295.541C212.679 296.003 211.768 296.234 210.713 296.234C209.287 296.234 208.135 295.772 207.256 294.848C206.383 293.917 205.947 292.712 205.947 291.234C205.947 289.587 206.419 288.266 207.363 287.27C208.307 286.267 209.567 285.766 211.143 285.766C212.021 285.766 212.796 285.928 213.467 286.254V287.895C212.725 287.374 211.93 287.113 211.084 287.113C210.062 287.113 209.222 287.481 208.564 288.217C207.913 288.946 207.588 289.906 207.588 291.098C207.588 292.27 207.894 293.194 208.506 293.871C209.124 294.548 209.951 294.887 210.986 294.887C211.859 294.887 212.679 294.597 213.447 294.018V295.541ZM224.17 296H222.568V290.238C222.568 288.155 221.794 287.113 220.244 287.113C219.463 287.113 218.805 287.416 218.271 288.021C217.738 288.62 217.471 289.392 217.471 290.336V296H215.869V281.195H217.471V287.66H217.51C218.278 286.397 219.372 285.766 220.791 285.766C223.044 285.766 224.17 287.123 224.17 289.838V296Z" fill="#FFE500"/>
<path d="M139.021 307.988C139.021 308.984 138.811 309.76 138.389 310.314C137.967 310.865 137.402 311.141 136.695 311.141C136.367 311.141 136.098 311.094 135.887 311V310.027C136.098 310.18 136.371 310.256 136.707 310.256C137.594 310.256 138.037 309.504 138.037 308V302.598H139.021V307.988ZM145.326 311H144.365V310.062H144.342C143.924 310.781 143.309 311.141 142.496 311.141C141.898 311.141 141.43 310.982 141.09 310.666C140.754 310.35 140.586 309.93 140.586 309.406C140.586 308.285 141.246 307.633 142.566 307.449L144.365 307.197C144.365 306.178 143.953 305.668 143.129 305.668C142.406 305.668 141.754 305.914 141.172 306.406V305.422C141.762 305.047 142.441 304.859 143.211 304.859C144.621 304.859 145.326 305.605 145.326 307.098V311ZM144.365 307.965L142.918 308.164C142.473 308.227 142.137 308.338 141.91 308.498C141.684 308.654 141.57 308.934 141.57 309.336C141.57 309.629 141.674 309.869 141.881 310.057C142.092 310.24 142.371 310.332 142.719 310.332C143.195 310.332 143.588 310.166 143.896 309.834C144.209 309.498 144.365 309.074 144.365 308.562V307.965ZM151.854 305L149.463 311H148.52L146.246 305H147.301L148.824 309.359C148.938 309.68 149.008 309.959 149.035 310.197H149.059C149.098 309.896 149.16 309.625 149.246 309.383L150.84 305H151.854ZM157.186 311H156.225V310.062H156.201C155.783 310.781 155.168 311.141 154.355 311.141C153.758 311.141 153.289 310.982 152.949 310.666C152.613 310.35 152.445 309.93 152.445 309.406C152.445 308.285 153.105 307.633 154.426 307.449L156.225 307.197C156.225 306.178 155.812 305.668 154.988 305.668C154.266 305.668 153.613 305.914 153.031 306.406V305.422C153.621 305.047 154.301 304.859 155.07 304.859C156.48 304.859 157.186 305.605 157.186 307.098V311ZM156.225 307.965L154.777 308.164C154.332 308.227 153.996 308.338 153.77 308.498C153.543 308.654 153.43 308.934 153.43 309.336C153.43 309.629 153.533 309.869 153.74 310.057C153.951 310.24 154.23 310.332 154.578 310.332C155.055 310.332 155.447 310.166 155.756 309.834C156.068 309.498 156.225 309.074 156.225 308.562V307.965ZM163.391 303.488H160.109V306.395H163.145V307.279H160.109V311H159.125V302.598H163.391V303.488ZM170.785 311H169.584L167.65 307.783C167.592 307.686 167.527 307.547 167.457 307.367H167.434C167.395 307.457 167.328 307.596 167.234 307.783L165.242 311H164.035L166.848 306.775L164.258 302.598H165.465L167.182 305.551C167.295 305.746 167.395 305.941 167.48 306.137H167.504C167.629 305.879 167.738 305.676 167.832 305.527L169.619 302.598H170.75L168.107 306.764L170.785 311ZM181.602 302.598L178.49 311H177.406L174.359 302.598H175.455L177.781 309.26C177.855 309.475 177.912 309.723 177.951 310.004H177.975C178.006 309.77 178.07 309.518 178.168 309.248L180.541 302.598H181.602ZM186.74 308.24H182.504C182.52 308.908 182.699 309.424 183.043 309.787C183.387 310.15 183.859 310.332 184.461 310.332C185.137 310.332 185.758 310.109 186.324 309.664V310.566C185.797 310.949 185.1 311.141 184.232 311.141C183.385 311.141 182.719 310.869 182.234 310.326C181.75 309.779 181.508 309.012 181.508 308.023C181.508 307.09 181.771 306.33 182.299 305.744C182.83 305.154 183.488 304.859 184.273 304.859C185.059 304.859 185.666 305.113 186.096 305.621C186.525 306.129 186.74 306.834 186.74 307.736V308.24ZM185.756 307.426C185.752 306.871 185.617 306.439 185.352 306.131C185.09 305.822 184.725 305.668 184.256 305.668C183.803 305.668 183.418 305.83 183.102 306.154C182.785 306.479 182.59 306.902 182.516 307.426H185.756ZM191.328 305.973C191.16 305.844 190.918 305.779 190.602 305.779C190.191 305.779 189.848 305.973 189.57 306.359C189.297 306.746 189.16 307.273 189.16 307.941V311H188.199V305H189.16V306.236H189.184C189.32 305.814 189.529 305.486 189.811 305.252C190.092 305.014 190.406 304.895 190.754 304.895C191.004 304.895 191.195 304.922 191.328 304.977V305.973ZM192.008 310.783V309.752C192.531 310.139 193.107 310.332 193.736 310.332C194.58 310.332 195.002 310.051 195.002 309.488C195.002 309.328 194.965 309.193 194.891 309.084C194.82 308.971 194.723 308.871 194.598 308.785C194.477 308.699 194.332 308.623 194.164 308.557C194 308.486 193.822 308.414 193.631 308.34C193.365 308.234 193.131 308.129 192.928 308.023C192.729 307.914 192.561 307.793 192.424 307.66C192.291 307.523 192.189 307.369 192.119 307.197C192.053 307.025 192.02 306.824 192.02 306.594C192.02 306.312 192.084 306.064 192.213 305.85C192.342 305.631 192.514 305.449 192.729 305.305C192.943 305.156 193.188 305.045 193.461 304.971C193.738 304.896 194.023 304.859 194.316 304.859C194.836 304.859 195.301 304.949 195.711 305.129V306.102C195.27 305.812 194.762 305.668 194.188 305.668C194.008 305.668 193.846 305.689 193.701 305.732C193.557 305.771 193.432 305.828 193.326 305.902C193.225 305.977 193.145 306.066 193.086 306.172C193.031 306.273 193.004 306.387 193.004 306.512C193.004 306.668 193.031 306.799 193.086 306.904C193.145 307.01 193.229 307.104 193.338 307.186C193.447 307.268 193.58 307.342 193.736 307.408C193.893 307.475 194.07 307.547 194.27 307.625C194.535 307.727 194.773 307.832 194.984 307.941C195.195 308.047 195.375 308.168 195.523 308.305C195.672 308.438 195.785 308.592 195.863 308.768C195.945 308.943 195.986 309.152 195.986 309.395C195.986 309.691 195.92 309.949 195.787 310.168C195.658 310.387 195.484 310.568 195.266 310.713C195.047 310.857 194.795 310.965 194.51 311.035C194.225 311.105 193.926 311.141 193.613 311.141C192.996 311.141 192.461 311.021 192.008 310.783ZM197.961 303.477C197.789 303.477 197.643 303.418 197.521 303.301C197.4 303.184 197.34 303.035 197.34 302.855C197.34 302.676 197.4 302.527 197.521 302.41C197.643 302.289 197.789 302.229 197.961 302.229C198.137 302.229 198.285 302.289 198.406 302.41C198.531 302.527 198.594 302.676 198.594 302.855C198.594 303.027 198.531 303.174 198.406 303.295C198.285 303.416 198.137 303.477 197.961 303.477ZM198.43 311H197.469V305H198.43V311ZM202.883 311.141C201.996 311.141 201.287 310.861 200.756 310.303C200.229 309.74 199.965 308.996 199.965 308.07C199.965 307.062 200.24 306.275 200.791 305.709C201.342 305.143 202.086 304.859 203.023 304.859C203.918 304.859 204.615 305.135 205.115 305.686C205.619 306.236 205.871 307 205.871 307.977C205.871 308.934 205.6 309.701 205.057 310.279C204.518 310.854 203.793 311.141 202.883 311.141ZM202.953 305.668C202.336 305.668 201.848 305.879 201.488 306.301C201.129 306.719 200.949 307.297 200.949 308.035C200.949 308.746 201.131 309.307 201.494 309.717C201.857 310.127 202.344 310.332 202.953 310.332C203.574 310.332 204.051 310.131 204.383 309.729C204.719 309.326 204.887 308.754 204.887 308.012C204.887 307.262 204.719 306.684 204.383 306.277C204.051 305.871 203.574 305.668 202.953 305.668ZM212.387 311H211.426V307.578C211.426 306.305 210.961 305.668 210.031 305.668C209.551 305.668 209.152 305.85 208.836 306.213C208.523 306.572 208.367 307.027 208.367 307.578V311H207.406V305H208.367V305.996H208.391C208.844 305.238 209.5 304.859 210.359 304.859C211.016 304.859 211.518 305.072 211.865 305.498C212.213 305.92 212.387 306.531 212.387 307.332V311Z" fill="#FFE500"/>
<rect x="65" y="139" width="222" height="114" fill="#7D9379"/>
<rect x="65" y="139" width="222" height="114" fill="url(#paint0_linear_3_16)"/>
<path d="M163.191 117.297C161.949 117.953 160.402 118.281 158.551 118.281C156.16 118.281 154.246 117.512 152.809 115.973C151.371 114.434 150.652 112.414 150.652 109.914C150.652 107.227 151.461 105.055 153.078 103.398C154.695 101.742 156.746 100.914 159.23 100.914C160.824 100.914 162.145 101.145 163.191 101.605V103.703C161.988 103.031 160.66 102.695 159.207 102.695C157.277 102.695 155.711 103.34 154.508 104.629C153.312 105.918 152.715 107.641 152.715 109.797C152.715 111.844 153.273 113.477 154.391 114.695C155.516 115.906 156.988 116.512 158.809 116.512C160.496 116.512 161.957 116.137 163.191 115.387V117.297ZM178.906 111.203C178.906 115.922 176.777 118.281 172.52 118.281C168.441 118.281 166.402 116.012 166.402 111.473V101.195H168.371V111.344C168.371 114.789 169.824 116.512 172.73 116.512C175.535 116.512 176.938 114.848 176.938 111.52V101.195H178.906V111.203ZM185.082 118H183.113V101.195H185.082V118ZM198.418 118H189.512V101.195H198.043V102.977H191.48V108.566H197.551V110.336H191.48V116.219H198.418V118Z" fill="#FFE500"/>
<rect x="0.5" y="0.5" width="349" height="371" stroke="#DD0000"/>
<defs>
<linearGradient id="paint0_linear_3_16" x1="75" y1="139" x2="176" y2="253" gradientUnits="userSpaceOnUse">
<stop stop-color="#6B8068"/>
<stop offset="1" stop-color="#222E20" stop-opacity="0"/>
</linearGradient>
</defs>
</svg>
